<?xml version="1.0" encoding="utf-8"?>
<!-- Generator: Adobe Illustrator 24.3.0, SVG Export Plug-In . SVG Version: 6.00 Build 0)  -->
<svg version="1.1" id="Layer_1" xmlns="http://www.w3.org/2000/svg" xmlns:xlink="http://www.w3.org/1999/xlink" x="0px" y="0px"
	 viewBox="0 0 250 134.47" style="enable-background:new 0 0 250 134.47;" xml:space="preserve">
<style type="text/css">
	.st0{fill:#ECF3FB;}
	.st1{fill:#1F77B9;}
	.st2{fill:#FFFFFF;}
	.st3{fill:#DAD9D9;}
	.st4{fill:#2CA5DE;}
	.st5{fill:#8D8C8C;}
	.st6{opacity:0.5;}
	.st7{fill:#CFDFF3;}
	.st8{fill:#B2CEEC;}
	.st9{fill:#B2CBEA;}
</style>
<g id="Group_2527" transform="translate(-522.466 -211.797)">
	<path id="Path_682" class="st0" d="M531.71,346.2c0,0-22.14-33.67,2.09-70.13c21.5-32.35,55.42-6.63,74.64-39.54
		c26.21-44.88,157.01-27.35,140.45,41.7c-8.02,33.42,36.38,34.63,19.87,68.03L531.71,346.2z"/>
	<g id="Group_1812" transform="translate(641 273.9)">
		<path id="Path_693" class="st1" d="M-43.6,7.97L5.83-21.62c2.73-1.63,6.13-1.63,8.85,0L64.12,7.97V56.2L-43.6,50.8L-43.6,7.97z"/>
		<rect id="Rectangle_689" x="-34.33" y="-13.4" class="st2" width="89.17" height="77.06"/>
		<g id="Group_1807" transform="translate(18.529 18.368)">
			<circle id="Ellipse_103" class="st3" cx="-49.22" cy="-28.4" r="0.92"/>
			<path id="Path_694" class="st3" d="M31.7-28.4c0-0.51,0.41-0.92,0.92-0.92c0.51,0,0.92,0.41,0.92,0.92
				c0,0.51-0.41,0.92-0.92,0.92l0,0C32.11-27.49,31.7-27.9,31.7-28.4z"/>
			<g id="Group_1804" transform="translate(1.895 1.737)">
				<rect id="Rectangle_690" x="-51.12" y="-30.24" class="st3" width="81.84" height="0.2"/>
			</g>
			<g id="Group_1805" transform="translate(1.737 1.318)">
				<rect id="Rectangle_691" x="-51.06" y="-30.09" class="st3" width="0.2" height="81.84"/>
			</g>
			<g id="Group_1806" transform="translate(131.254 1.318)">
				<rect id="Rectangle_692" x="-98.7" y="-30.09" class="st3" width="0.2" height="81.84"/>
			</g>
		</g>
		<g id="Group_1808" transform="translate(0 48.54)">
			<path id="Path_695" class="st4" d="M64.12-40.7v64.49H-43.6V-40.7L10.26-8.46L64.12-40.7z"/>
			<path id="Path_696" class="st1" d="M-43.6,23.79L5.73-11.58c2.7-1.94,6.34-1.94,9.04,0l49.34,35.37H-43.6z"/>
		</g>
		<path id="Path_697" class="st3" d="M26.7-2.72H-5.81c-0.47,0-0.86-0.38-0.86-0.86l0,0c0-0.47,0.38-0.86,0.86-0.86H26.7
			c0.47,0,0.86,0.38,0.86,0.86l0,0C27.56-3.11,27.17-2.72,26.7-2.72z"/>
		<path id="Path_698" class="st3" d="M35.08,0.72h-49.26c-0.47,0-0.86-0.38-0.86-0.86l0,0c0-0.47,0.38-0.86,0.86-0.86h49.26
			c0.47,0,0.86,0.38,0.86,0.86l0,0C35.93,0.34,35.55,0.72,35.08,0.72z"/>
		<g id="Group_1811" transform="translate(46.75 52.214)">
			<path id="Path_699" class="st3" d="M-18.07-40.81h-35.64c-0.34,0-0.62-0.28-0.62-0.62l0,0c0-0.34,0.28-0.62,0.62-0.62h35.64
				c0.34,0,0.62,0.28,0.62,0.62l0,0C-17.44-41.09-17.72-40.81-18.07-40.81z"/>
			<g id="Group_1809" transform="translate(0 5.131)">
				<path id="Path_700" class="st3" d="M-50.13-42.7h-10.05c-0.34,0-0.62-0.28-0.62-0.62l0,0c0-0.34,0.28-0.62,0.62-0.62h10.05
					c0.34,0,0.62,0.28,0.62,0.62l0,0C-49.51-42.98-49.79-42.7-50.13-42.7z"/>
				<path id="Path_701" class="st3" d="M-34.97-42.7h-12.14c-0.34,0-0.62-0.28-0.62-0.62l0,0c0-0.34,0.28-0.62,0.62-0.62h12.14
					c0.34,0,0.62,0.28,0.62,0.62l0,0C-34.35-42.98-34.63-42.7-34.97-42.7z"/>
				<path id="Path_702" class="st3" d="M-11.59-42.7h-20.99c-0.34,0-0.62-0.28-0.62-0.62l0,0c0-0.34,0.28-0.62,0.62-0.62h20.99
					c0.34,0,0.62,0.28,0.62,0.62l0,0C-10.97-42.98-11.25-42.7-11.59-42.7z"/>
			</g>
			<g id="Group_1810" transform="translate(9.117 11.097)">
				<path id="Path_703" class="st3" d="M-44.01-44.89h-19.52c-0.34,0-0.62-0.28-0.62-0.62l0,0c0-0.34,0.28-0.62,0.62-0.62h19.52
					c0.34,0,0.62,0.28,0.62,0.62l0,0C-43.39-45.17-43.67-44.89-44.01-44.89z"/>
				<path id="Path_704" class="st3" d="M-26.48-44.89h-15.38c-0.34,0-0.62-0.28-0.62-0.62l0,0c0-0.34,0.28-0.62,0.62-0.62h15.38
					c0.34,0,0.62,0.28,0.62,0.62l0,0C-25.85-45.17-26.13-44.89-26.48-44.89z"/>
			</g>
		</g>
		<path id="Path_705" class="st5" d="M17.34,26.09c-1.17,0.96-2.43,1.8-3.75,2.53c0.12-0.33,0.19-0.68,0.19-1.04
			c-0.02-0.45-0.38-0.64-0.74-0.83c-0.09-0.05-0.17-0.09-0.25-0.14c0.15-0.13,0.2-0.35,0.12-0.53c-0.09-0.19-0.31-0.28-0.51-0.2
			c-0.1,0.04-0.17,0.13-0.21,0.23c-0.02,0.05-0.04,0.11-0.05,0.17c-0.05-0.03-0.1-0.06-0.14-0.11c0.22-0.41,0.42-0.82,0.61-1.24
			c0.03-0.1,0-0.21-0.09-0.26c-0.31-0.23-0.75-0.17-0.99,0.14c-0.25,0.39-0.28,0.87-0.08,1.29c0.01,0.03,0.02,0.06,0.03,0.08
			c-0.28,0.5-0.58,0.99-0.9,1.46c-0.03-0.03-0.06-0.06-0.09-0.09c-0.09-0.09-0.18-0.19-0.25-0.3c0.15-0.39,0.24-0.8,0.28-1.21
			c0.01-0.13-0.09-0.24-0.22-0.24c-0.04,0-0.08,0.01-0.11,0.02c-0.43,0.17-0.68,0.61-0.61,1.06c0.02,0.15,0.07,0.3,0.14,0.44
			c-0.1,0.21-0.21,0.42-0.35,0.61c-0.07,0.1-0.05,0.23,0.05,0.3c0.01,0.01,0.02,0.01,0.03,0.02c-0.12,0.48-0.34,0.92-0.66,1.3
			c-0.27,0.28-0.77,0.49-1.09,0.16c-0.18-0.24-0.27-0.54-0.26-0.84c-0.08-0.69-0.11-1.39-0.1-2.08c0-0.33,0.06-0.65,0.16-0.96
			c0.07-0.19,0.17-0.48,0.26-0.15c0.02,0.19,0.01,0.39-0.03,0.58c0,0.13,0.1,0.23,0.22,0.24c0.12,0,0.22-0.08,0.23-0.2
			c0.03-0.34,0.19-1.07-0.2-1.28c-0.32-0.18-0.62,0.08-0.77,0.35c-0.54,0.97-0.32,2.29-0.24,3.34c0.06,0.84,0.38,1.87,1.45,1.6
			c1.01-0.25,1.38-1.52,1.61-2.39c0.01-0.05,0.01-0.1-0.01-0.15l0.01-0.02c0.04,0.04,0.08,0.08,0.13,0.13
			c0.06,0.05,0.12,0.11,0.17,0.17c-0.11,0.15-0.21,0.29-0.32,0.44c-0.06,0.09-0.05,0.2,0.02,0.28c0.2,0.22,0.54,0.24,0.76,0.05
			c0.13-0.11,0.19-0.27,0.18-0.44c0-0.11-0.03-0.22-0.08-0.32c0.32-0.46,0.62-0.93,0.89-1.41c0.14,0.15,0.34,0.23,0.55,0.22
			c0.02,0,0.03,0,0.05,0c0.12,0.12,0.25,0.22,0.4,0.3c0.14,0.06,0.27,0.13,0.4,0.21c0.22,0.18,0.15,0.38,0.1,0.63
			c-0.07,0.33-0.16,0.66-0.27,0.99c-0.49,0.22-0.87,0.63-1.07,1.13c-0.16,0.47,0,0.99,0.4,1.29c0.11,0.07,0.25,0.04,0.32-0.07
			c0.01-0.01,0.02-0.03,0.02-0.05c0.26-0.64,0.49-1.29,0.7-1.95l0.02-0.06c0.41-0.23,0.83-0.43,1.23-0.67
			c1.07-0.63,2.08-1.35,3.03-2.14C17.87,26.24,17.57,25.9,17.34,26.09z M11.79,25.48c0-0.18,0.09-0.52,0.3-0.51
			c-0.09,0.21-0.19,0.41-0.3,0.61C11.79,25.54,11.79,25.51,11.79,25.48L11.79,25.48z M12.37,30.76c-0.19-0.36,0.08-0.8,0.4-1.1
			C12.64,30.03,12.51,30.4,12.37,30.76L12.37,30.76z"/>
	</g>
	<g id="Group_1813" transform="translate(699.699 238.125)" class="st6">
		<path id="Path_706" class="st7" d="M-48.08-9.69l4.65,10.25l-17.11,7.76l-4.64-10.25l10.88,1.24L-48.08-9.69z"/>
		<path id="Path_707" class="st8" d="M-65.2-1.93l17.11-7.76l-5.12,8.62c-0.4,0.68-1.19,1.04-1.97,0.9L-65.2-1.93z"/>
	</g>
	<g id="Group_1814" transform="translate(550.309 343.951)" class="st6">
		<path id="Path_708" class="st7" d="M0.7-48.61l2.44,6.55L-7.8-37.98l-2.44-6.55l6.69,1.24L0.7-48.61z"/>
		<path id="Path_709" class="st8" d="M-10.24-44.53L0.7-48.61l-3.54,5.13c-0.28,0.4-0.78,0.59-1.26,0.48L-10.24-44.53z"/>
	</g>
	<g id="Group_1815" transform="translate(824.621 273.205)" class="st6">
		<path id="Path_710" class="st7" d="M-86.23-16.86l-3.43,12.86l-21.49-5.73l3.43-12.86l9.03,9.3L-86.23-16.86z"/>
		<path id="Path_711" class="st8" d="M-107.72-22.59l21.49,5.73l-11.15,4.06c-0.88,0.32-1.87,0.06-2.47-0.65L-107.72-22.59z"/>
	</g>
	<g id="Group_1818" transform="translate(544.717 368.311)">
		<g id="Group_1816" transform="translate(0 5.274)">
			<path id="Path_712" class="st9" d="M1.58-49.28L1.58-49.28c-0.52,0-1.02-0.01-1.5-0.02c-0.06,0-0.1-0.04-0.1-0.09
				c0-0.06,0.04-0.1,0.09-0.1c0.01,0,0.01,0,0.02,0c0.47,0.01,0.98,0.02,1.49,0.02c0.05,0,0.1,0.05,0.09,0.11
				C1.67-49.33,1.63-49.29,1.58-49.28L1.58-49.28z M3.08-49.29c-0.05,0-0.1-0.05-0.09-0.11c0-0.05,0.04-0.09,0.09-0.09
				c0.48-0.01,0.98-0.02,1.5-0.04c0.05,0,0.1,0.04,0.1,0.09c0,0,0,0,0,0.01c0,0.06-0.04,0.1-0.1,0.1c0,0,0,0,0,0
				C4.06-49.31,3.56-49.3,3.08-49.29L3.08-49.29z M-1.41-49.37L-1.41-49.37c-0.53-0.03-1.04-0.07-1.5-0.12
				c-0.06,0-0.1-0.05-0.09-0.11c0-0.06,0.05-0.1,0.11-0.09c0,0,0.01,0,0.01,0c0.46,0.05,0.96,0.09,1.49,0.12
				c0.05,0.01,0.09,0.05,0.09,0.11C-1.32-49.41-1.36-49.37-1.41-49.37L-1.41-49.37z M6.07-49.39c-0.06,0-0.1-0.05-0.09-0.11
				c0-0.05,0.04-0.09,0.09-0.09c0.48-0.02,0.98-0.05,1.49-0.08c0.05,0,0.1,0.04,0.11,0.09c0,0.05-0.04,0.1-0.09,0.1
				C7.06-49.44,6.55-49.41,6.07-49.39L6.07-49.39z M9.06-49.56c-0.06,0-0.1-0.05-0.1-0.1c0-0.05,0.04-0.09,0.09-0.09
				c0.49-0.03,0.99-0.07,1.49-0.11c0.05-0.01,0.11,0.03,0.11,0.08c0.01,0.05-0.03,0.11-0.08,0.11c-0.01,0-0.01,0-0.02,0
				C10.05-49.63,9.55-49.6,9.06-49.56L9.06-49.56z M-4.38-49.7H-4.4c-0.5-0.09-0.99-0.2-1.47-0.35c-0.05-0.02-0.08-0.07-0.06-0.13
				c0.02-0.05,0.07-0.08,0.13-0.06c0.47,0.15,0.95,0.26,1.44,0.34c0.05,0.01,0.09,0.06,0.08,0.12C-4.29-49.73-4.33-49.7-4.38-49.7
				L-4.38-49.7z M12.04-49.79c-0.06,0-0.1-0.05-0.1-0.1c0-0.05,0.04-0.09,0.09-0.1c0.49-0.04,0.99-0.09,1.49-0.13
				c0.06,0,0.1,0.04,0.1,0.1c0,0.05-0.03,0.09-0.08,0.1C13.04-49.88,12.54-49.83,12.04-49.79L12.04-49.79z M15.02-50.06
				c-0.06,0-0.1-0.05-0.1-0.1c0-0.05,0.04-0.09,0.09-0.1c0.49-0.05,0.99-0.1,1.49-0.15c0.06,0,0.1,0.04,0.1,0.09
				c0,0.05-0.03,0.1-0.08,0.1C16.02-50.16,15.53-50.11,15.02-50.06L15.02-50.06z M18-50.37c-0.06,0-0.1-0.05-0.1-0.1
				c0-0.05,0.04-0.09,0.08-0.09c0.49-0.05,0.99-0.11,1.49-0.16c0.05,0,0.1,0.04,0.11,0.09c0,0.05-0.03,0.1-0.09,0.11
				c-0.5,0.06-0.99,0.11-1.49,0.16H18z M-7.18-50.68c-0.02,0-0.04-0.01-0.06-0.02c-0.26-0.18-0.48-0.42-0.62-0.71
				c-0.09-0.18-0.16-0.37-0.22-0.56c-0.01-0.05,0.02-0.11,0.08-0.12c0.05-0.01,0.09,0.01,0.11,0.06c0.06,0.18,0.13,0.36,0.21,0.54
				c0.13,0.25,0.32,0.47,0.56,0.63c0.04,0.03,0.05,0.1,0.02,0.14C-7.12-50.69-7.15-50.68-7.18-50.68L-7.18-50.68z M20.98-50.7
				c-0.06,0-0.1-0.05-0.1-0.1c0-0.05,0.04-0.09,0.08-0.09c0.49-0.06,0.99-0.12,1.49-0.18c0.05-0.01,0.11,0.03,0.12,0.08
				c0.01,0.05-0.03,0.11-0.08,0.12c0,0-0.01,0-0.01,0c-0.5,0.06-0.99,0.12-1.49,0.18L20.98-50.7z M23.95-51.06
				c-0.06,0-0.1-0.05-0.1-0.1c0-0.05,0.04-0.09,0.08-0.1c0.49-0.06,0.99-0.12,1.48-0.19c0.06,0,0.1,0.04,0.11,0.09
				c0,0.05-0.03,0.1-0.08,0.11c-0.49,0.06-0.99,0.13-1.48,0.19L23.95-51.06z M26.91-51.44c-0.06,0-0.1-0.05-0.1-0.1
				c0-0.05,0.04-0.09,0.08-0.1c0.49-0.07,0.99-0.13,1.48-0.2c0.05-0.01,0.1,0.03,0.11,0.09c0.01,0.05-0.03,0.1-0.08,0.11
				c-0.5,0.07-0.99,0.13-1.48,0.2L26.91-51.44z M29.88-51.84c-0.06,0-0.1-0.05-0.1-0.1c0-0.05,0.04-0.09,0.08-0.1
				c0.49-0.07,0.99-0.14,1.48-0.21c0.05-0.01,0.11,0.02,0.12,0.08c0.01,0.05-0.02,0.11-0.08,0.12c0,0-0.01,0-0.01,0
				c-0.49,0.07-0.99,0.14-1.48,0.21L29.88-51.84z M32.85-52.26c-0.06,0-0.1-0.05-0.1-0.1c0-0.05,0.04-0.09,0.08-0.1
				c0.49-0.07,0.99-0.14,1.48-0.21c0.05,0,0.1,0.04,0.11,0.09c0,0.05-0.03,0.1-0.08,0.11l-1.48,0.21L32.85-52.26z M35.81-52.7
				c-0.06,0-0.1-0.05-0.1-0.1c0-0.05,0.04-0.09,0.08-0.1c0.5-0.07,0.99-0.15,1.48-0.22c0.05-0.01,0.1,0.04,0.11,0.09
				c0,0.05-0.03,0.1-0.08,0.11c-0.49,0.07-0.98,0.15-1.48,0.22L35.81-52.7z M38.77-53.14c-0.06,0-0.1-0.05-0.1-0.1
				c0-0.05,0.04-0.09,0.08-0.1c0.5-0.08,0.99-0.15,1.48-0.23c0.05-0.01,0.1,0.03,0.11,0.09c0.01,0.05-0.03,0.1-0.08,0.11l-1.48,0.23
				L38.77-53.14z M-8.09-53.37c-0.01,0-0.01,0-0.02,0c-0.05-0.01-0.09-0.06-0.08-0.12c0.11-0.5,0.34-0.97,0.67-1.36
				c0.03-0.04,0.1-0.05,0.14-0.01c0.04,0.03,0.05,0.1,0.01,0.14c-0.31,0.37-0.52,0.81-0.63,1.28C-8-53.4-8.04-53.37-8.09-53.37
				L-8.09-53.37z M41.73-53.61c-0.06,0-0.1-0.05-0.1-0.1c0-0.05,0.04-0.09,0.08-0.09l1.48-0.24c0.05-0.01,0.11,0.03,0.11,0.08
				c0.01,0.05-0.03,0.1-0.08,0.11l-1.48,0.24L41.73-53.61z M44.68-54.08c-0.06,0-0.1-0.05-0.1-0.1c0-0.05,0.04-0.09,0.08-0.09
				l1.48-0.24c0.05-0.01,0.11,0.02,0.12,0.07c0.01,0.05-0.02,0.11-0.07,0.12c0,0-0.01,0-0.01,0l-1.48,0.24L44.68-54.08z
				 M47.64-54.56c-0.06,0-0.1-0.05-0.1-0.1c0-0.05,0.03-0.09,0.08-0.1l1.48-0.25c0.05-0.01,0.1,0.03,0.11,0.09
				c0.01,0.05-0.03,0.1-0.08,0.11l-1.48,0.25L47.64-54.56z M50.59-55.06c-0.06,0-0.1-0.05-0.1-0.1c0-0.05,0.03-0.09,0.08-0.1
				l1.48-0.25c0.05-0.01,0.1,0.03,0.11,0.09c0.01,0.05-0.03,0.1-0.08,0.11l-1.48,0.25L50.59-55.06z M53.54-55.57
				c-0.06,0-0.1-0.05-0.1-0.1c0-0.05,0.03-0.09,0.08-0.1L55-56.02c0.05-0.01,0.1,0.03,0.11,0.09c0.01,0.05-0.03,0.1-0.08,0.11
				l-1.48,0.26L53.54-55.57z M-6.33-55.69c-0.06,0-0.1-0.05-0.1-0.1c0-0.03,0.02-0.06,0.04-0.08c0.42-0.29,0.85-0.54,1.31-0.76
				c0.05-0.02,0.11,0.01,0.13,0.06c0.02,0.05,0,0.1-0.04,0.12c-0.45,0.21-0.87,0.46-1.28,0.74C-6.29-55.69-6.31-55.69-6.33-55.69
				L-6.33-55.69z M56.5-56.08c-0.06,0-0.1-0.05-0.1-0.1c0-0.05,0.03-0.09,0.08-0.1l1.48-0.26c0.05-0.01,0.11,0.03,0.11,0.08
				c0.01,0.05-0.03,0.1-0.08,0.11l-1.48,0.26L56.5-56.08z M59.45-56.61c-0.06,0-0.1-0.05-0.1-0.1c0-0.05,0.03-0.09,0.08-0.1
				l1.47-0.27c0.05-0.01,0.11,0.02,0.12,0.07c0.01,0.05-0.02,0.11-0.07,0.12c0,0-0.01,0-0.01,0l-1.48,0.27L59.45-56.61z
				 M-3.66-57.02c-0.06,0-0.1-0.05-0.1-0.1c0-0.04,0.03-0.08,0.06-0.09c0.44-0.16,0.92-0.32,1.43-0.48
				c0.05-0.01,0.11,0.03,0.11,0.08c0.01,0.04-0.02,0.09-0.06,0.11c-0.5,0.15-0.98,0.31-1.41,0.47C-3.64-57.02-3.65-57.02-3.66-57.02
				L-3.66-57.02z M62.4-57.15c-0.06,0-0.1-0.05-0.1-0.1c0-0.05,0.03-0.09,0.08-0.1c0.56-0.1,1.06-0.2,1.48-0.28
				c0.05-0.01,0.11,0.02,0.12,0.07c0.01,0.05-0.02,0.11-0.07,0.12c0,0-0.01,0-0.01,0c-0.42,0.08-0.91,0.17-1.48,0.28L62.4-57.15z
				 M65.35-57.7c-0.06,0-0.1-0.05-0.1-0.1c0-0.05,0.03-0.08,0.08-0.09l0.17-0.03c0.06-0.01,0.11,0.03,0.12,0.08
				c0,0.01,0,0.01,0,0.02c0,0.08-0.01,0.08-0.25,0.13C65.37-57.7,65.36-57.7,65.35-57.7L65.35-57.7z M-0.79-57.88
				c-0.06,0-0.1-0.05-0.1-0.1c0-0.05,0.03-0.08,0.08-0.1c0.47-0.11,0.96-0.23,1.47-0.33c0.05-0.01,0.11,0.03,0.11,0.09
				c0.01,0.05-0.02,0.1-0.07,0.11c-0.51,0.1-1,0.21-1.46,0.33C-0.78-57.89-0.79-57.89-0.79-57.88L-0.79-57.88z M2.14-58.49
				c-0.06,0-0.1-0.05-0.1-0.1c0-0.05,0.03-0.09,0.08-0.1c0.48-0.08,0.98-0.16,1.48-0.23c0.05-0.01,0.11,0.02,0.12,0.08
				c0.01,0.05-0.02,0.11-0.08,0.12c0,0-0.01,0-0.01,0c-0.51,0.07-1,0.15-1.48,0.23L2.14-58.49z M5.11-58.92
				c-0.06,0-0.1-0.05-0.1-0.1c0-0.05,0.04-0.09,0.08-0.1c0.49-0.06,0.99-0.11,1.49-0.16c0.06,0,0.1,0.04,0.1,0.1
				c0,0.05-0.03,0.09-0.08,0.1c-0.5,0.05-1,0.1-1.49,0.16H5.11z M8.1-59.21c-0.06,0-0.1-0.05-0.1-0.1c0-0.05,0.04-0.09,0.09-0.1
				c0.93-0.07,1.5-0.1,1.51-0.1c0.05,0,0.1,0.04,0.1,0.09c0,0,0,0,0,0c0,0.05-0.04,0.1-0.1,0.1C9.6-59.31,9.03-59.29,8.1-59.21
				L8.1-59.21z"/>
		</g>
		<g id="Group_1817" transform="translate(105.843 0)">
			<path id="Path_713" class="st9" d="M-37.16-47.18l12.28-6.96l-11.2,0.66l0.86,1.89l-2.31,2.56L-37.16-47.18z"/>
			<path id="Path_714" class="st2" d="M-24.88-54.14l-12.87,2.36l-9.37,6.51L-24.88-54.14z"/>
			<path id="Path_715" class="st2" d="M-36.08-53.48l11.2-0.66l-11.72-3.43L-36.08-53.48z"/>
		</g>
	</g>
	<g id="Group_1820" transform="translate(757.186 227.801)">
		<g id="Group_1819" transform="translate(0 0)">
			<path id="Path_716" class="st9" d="M-77.36,1.89l13.94,2.21l-9.18-6.46l-0.5,2.02l-3.41,0.56L-77.36,1.89z"/>
			<path id="Path_717" class="st2" d="M-63.42,4.1l-11.53-6.17l-11.39-0.75L-63.42,4.1z"/>
			<path id="Path_718" class="st2" d="M-72.6-2.36l9.17,6.46l-7.03-9.99L-72.6-2.36z"/>
		</g>
	</g>
</g>
</svg>
